<?xml version="1.0" encoding="utf-8"?>
<!-- Generator: Adobe Illustrator 27.0.1, SVG Export Plug-In . SVG Version: 6.00 Build 0)  -->
<svg version="1.1" id="Layer_1" xmlns="http://www.w3.org/2000/svg" xmlns:xlink="http://www.w3.org/1999/xlink" x="0px" y="0px"
	 viewBox="0 0 200 200" style="enable-background:new 0 0 200 200;" xml:space="preserve">
<style type="text/css">
	.st0{fill:#FFFFFF;}
	.st1{fill:#BA9A48;}
	.st2{fill:#744E32;}
	.st3{fill:#9E7724;}
	.st4{fill:#5A3D2F;}
	.st5{fill:#CEB574;}
	.st6{fill:#87542F;}
	.st7{fill:none;stroke:#000000;stroke-width:15;stroke-linecap:round;stroke-linejoin:round;stroke-miterlimit:10;}
</style>
<g>
	<g>
		<path d="M101.35,74.65c0.82,0.08,5.07,0.3,8.08-2.89c3.32-3.52,3.03-8.9,1.02-12.41c-0.28-0.49-2.88-4.8-7.69-5.27
			c-0.29-0.03-0.58-0.04-0.87-0.04c-2.49,0-5.1,1-7.12,2.77c-2.16,1.89-3.41,4.43-3.51,7.15C91.06,69.77,96.31,74.18,101.35,74.65z"
			/>
	</g>
	<g>
		<path class="st0" d="M85.56,74.8c3.37,4.03,8.22,6.58,13.32,6.99c9.77,0.79,19.02-6.35,20.61-15.91
			c0.89-5.34-0.72-10.94-4.4-15.35c-3.73-4.47-9.03-7.08-14.53-7.16c-0.09,0-0.17,0-0.26,0c-9.65,0-18.22,7.72-19.18,17.32
			C80.61,65.75,82.19,70.76,85.56,74.8z M90.57,63.94c0.11-2.91,1.44-5.63,3.74-7.65c2.4-2.1,5.58-3.19,8.51-2.9
			c5.16,0.5,7.94,5.09,8.23,5.62c2.14,3.73,2.44,9.48-1.12,13.24c-2.61,2.76-6.07,3.14-7.77,3.14c-0.41,0-0.71-0.02-0.88-0.04
			c-2.66-0.25-5.35-1.51-7.37-3.45C91.65,69.72,90.46,66.9,90.57,63.94z"/>
	</g>
	<g>
		<path d="M11.21,60.01c-0.23-0.11-0.55-0.23-0.82-0.13c-0.24,0.08-0.46,0.34-0.63,0.74c-0.55,1.25-0.6,3.78,0.27,5.86
			c0.87,2.07,2.6,3.81,3.5,3.52c0.98-0.32,1.53-3.33,0.73-5.87C13.71,62.39,12.37,60.58,11.21,60.01z"/>
	</g>
	<g>
		<path d="M26.36,75.04c1.04-0.53,1.22-2.78,0.69-4.44c-0.53-1.68-1.92-3.03-3.01-3.5c-0.24-0.1-0.54-0.2-0.83-0.2
			c-0.16,0-0.32,0.03-0.47,0.1c-0.33,0.16-0.61,0.56-0.78,1.12c-0.42,1.33-0.19,3.23,0.53,4.53C23.37,74.22,25.25,75.61,26.36,75.04
			z"/>
	</g>
	<g>
		<path d="M66.11,63.24c3.92,0.48,7.91-2.11,9.29-6.03c1.36-3.85-0.08-8.27-3.43-10.49c-1.63-1.08-3.33-1.39-4.74-1.39
			c-1.81,0-3.15,0.51-3.25,0.55c-2.64,1.03-4.68,3.33-5.31,6.01c-0.58,2.46,0.04,5.41,1.63,7.69
			C61.76,61.66,63.82,62.96,66.11,63.24z"/>
	</g>
	<g>
		<path class="st1" d="M100.6,26c0.53-4.36,0.78-8.78,0.74-13.16c-0.02-2.4-0.13-4.83-0.32-7.22c-0.06-0.76-0.45-1.45-1.06-1.91
			c-0.61-0.46-1.4-0.63-2.14-0.47c-4.92,1.05-9.67,2.78-14.11,5.13c-4.46,2.37-8.57,5.35-12.21,8.86c-0.45,0.44-0.61,1.08-0.4,1.67
			c0.21,0.6,0.74,1,1.37,1.06c3.68,0.32,7.36,0.2,10.95-0.36c1.45-0.23,2.9-0.53,4.32-0.91c1.03-2.8,2.39-5.48,4.05-7.98l0.58,0.39
			c-1.93,2.91-3.45,6.07-4.51,9.38c-0.7,2.18-1.2,4.44-1.49,6.72C91.54,25.66,96.55,25.59,100.6,26z"/>
	</g>
	<g>
		<path class="st2" d="M41.74,77.79c3.63-3.75,3.72-8.74,3.72-8.79c0.01-0.84-0.11-5.18-3.07-8.35c-1.32-1.41-2.59-1.93-3.94-2.47
			c-1.56-0.63-3.16-1.28-4.86-3.35c-0.75-0.91-1.01-1.49-1.29-2.11c-0.25-0.54-0.53-1.16-1.2-2.13c-1.98-2.84-5.02-5.35-7.76-6.4
			c-1.28-0.49-2.66-0.72-4.07-0.72c-5.85,0-12.29,3.99-15.24,10.01c-0.74,1.5-3.01,6.84-1.3,12.48c2.45,8.06,11.47,12.91,19.1,14.76
			C30.23,82.76,38.04,81.61,41.74,77.79z M13.74,70.66c-0.14,0.05-0.28,0.07-0.43,0.07c-1.48,0-3.18-2.2-3.93-3.99
			c-0.86-2.06-0.98-4.82-0.27-6.42c0.26-0.59,0.61-0.96,1.04-1.11c0.4-0.14,0.86-0.08,1.37,0.17c1.33,0.66,2.79,2.61,3.4,4.54
			C15.75,66.52,15.37,70.14,13.74,70.66z M21.29,67.91c0.24-0.76,0.63-1.29,1.15-1.54c0.52-0.25,1.17-0.22,1.88,0.08
			c1.47,0.63,2.86,2.25,3.4,3.93c0.52,1.64,0.55,4.45-1.04,5.27c-0.28,0.15-0.59,0.21-0.89,0.21c-1.49,0-3.15-1.53-3.91-2.88
			C21.06,71.51,20.82,69.42,21.29,67.91z"/>
	</g>
	<g>
		<path class="st0" d="M60.43,68.03c3.26,1.74,6.76,3.07,10.44,3.98c2.66-0.34,5.03-1.24,7.04-2.68c1.05-0.75,2.01-1.66,2.85-2.7
			c-0.42-1.96-0.55-3.98-0.35-6.01c0.35-3.5,1.65-6.81,3.74-9.65c-0.58-2.54-2.2-7.11-6.62-10.27c-6.38-4.55-17.29-4.91-23.8,2.44
			c-4.04,4.56-5.39,11.45-3.36,17.16C52.79,62.76,55.65,65.47,60.43,68.03z M57.99,51.72c0.69-2.9,2.88-5.39,5.74-6.51
			c0.19-0.07,4.62-1.75,8.63,0.92c3.6,2.4,5.16,7.16,3.7,11.31C74.7,61.32,70.93,64,67.04,64c-0.34,0-0.68-0.02-1.01-0.06
			c-2.49-0.3-4.72-1.71-6.29-3.96C58.01,57.5,57.36,54.42,57.99,51.72z"/>
	</g>
	<g>
		<path class="st1" d="M195.95,77.59c-1-0.44-2.49-0.48-3.65,0.71c-2.93,2.99-6.19,5.63-9.7,7.84c-3.42,2.15-7.1,3.91-10.94,5.24
			c4.64,3.71,8.36,8.28,10.92,13.46c0.54,1.08,1,2.16,1.42,3.24c3.4-2.77,7.93-7.45,10.92-14.41c1.75-4.08,2.76-8.44,2.98-12.94
			C197.98,79.07,196.94,78.02,195.95,77.59z"/>
	</g>
	<g>
		<path class="st0" d="M98.94,103.36c0.93,0.53,1.8,1.03,2.13,0.83c0.26-0.15,0.89-1.16-1.39-7.78c-1.37,1.17-2.89,2.37-4.55,3.57
			C96.19,101.38,97.46,102.51,98.94,103.36z"/>
	</g>
	<g>
		<path class="st1" d="M142.92,82.05l-0.31-0.01l-0.03-0.31c-0.98-9.44-2.79-18.87-5.39-28.03c-1.07-3.78-1.5-4.76-1.7-5.23
			c-1.82-4.19-4.68-7.93-8.5-11.13l-0.61-0.5l0.24-0.27c1.47-1.63,2.82-3.39,4.02-5.22c1.39-2.12,2.6-4.38,3.6-6.71l0.64,0.28
			c-0.83,1.94-1.81,3.82-2.91,5.62c1.43,1.72,3.04,3.28,4.79,4.64c2.58,2.01,5.48,3.61,8.6,4.75c0.5,0.18,1.04,0.11,1.48-0.19
			c0.44-0.31,0.69-0.79,0.69-1.32c-0.01-5.47-1.06-10.81-3.11-15.86c-1.86-4.56-4.48-8.73-7.8-12.39c-1.49-1.64-4.06-1.78-5.74-0.31
			c-2.5,2.19-4.91,4.54-7.16,6.97c-4.27,4.62-9.85,12.22-12.24,15.93l-0.59-0.38c0.51-0.8,1.18-1.77,1.94-2.86
			c-2.04-0.72-3.58-1.12-4.35-1.32c-3.29-0.86-13.28-3.49-23.54,0.21c-4.87,1.76-9.4,4.85-13.14,8.94c2.24,0.56,4.34,1.5,6.13,2.78
			c4.3,3.07,6.06,7.41,6.76,10.13c0.74-0.91,1.55-1.77,2.45-2.55c3.79-3.32,8.55-5.11,13.4-5.04c5.71,0.08,11.2,2.78,15.06,7.41
			c3.82,4.57,5.48,10.38,4.56,15.92c-0.8,4.79-3.44,9.14-7.43,12.25c-3.6,2.81-7.94,4.31-12.36,4.31c-0.52,0-1.04-0.02-1.56-0.06
			c-5.28-0.42-10.31-3.06-13.8-7.24c-1.95-2.33-3.32-4.98-4.06-7.78c-0.79,0.92-1.68,1.73-2.64,2.42c-1.67,1.2-3.58,2.04-5.67,2.51
			c1.22,0.25,2.46,0.46,3.72,0.61l-0.09,0.69c-5.82-0.73-11.27-2.43-16.19-5.07c-5.36-2.87-8.34-5.92-10.97-8.61
			c-2.89-2.96-5.4-5.53-10.32-7.36c-1.99-0.74-4.29-1.3-6.56-1.59c0.33,0.55,0.52,0.98,0.7,1.37c0.27,0.6,0.51,1.12,1.19,1.96
			c1.58,1.93,3.04,2.52,4.58,3.14c1.36,0.55,2.76,1.12,4.19,2.64c3.14,3.36,3.26,7.94,3.26,8.83c0,0.21-0.09,5.31-3.92,9.27
			c-2.62,2.7-7.16,4.13-12.49,4.14c-2.55,0-5.28-0.33-8.08-1c-4.77-1.16-10.08-3.47-14.07-7c0.61,12.97,10.68,27.29,24.24,34.33
			c14.93,7.74,29.98,4.13,38.07,2.18c14.85-3.57,25.54-11.38,31.95-17.4c-0.7-0.91-1.15-2.06-1.31-3.35l0.7-0.09
			c0.16,1.28,0.63,2.4,1.36,3.25c2,2.31,5.89,2.78,9.69,1.17l0.27,0.64c-1.59,0.67-3.2,1-4.7,1c-2.22,0-4.2-0.71-5.55-2.09
			c-0.65,0.61-1.34,1.23-2.07,1.86c2.45,7.02,1.91,8.43,1.17,8.87c-0.17,0.1-0.34,0.14-0.54,0.14c-0.6,0-1.35-0.43-2.3-0.97
			c-1.56-0.89-2.91-2.09-4.02-3.57c-0.31,0.22-0.62,0.44-0.94,0.66c1.65,4.87,1.93,7.57,0.83,8.22c-0.18,0.11-0.4,0.16-0.63,0.16
			c-0.96,0-2.29-0.86-3.68-1.75c-1.13-0.73-2.18-1.6-3.12-2.59c-4.87,2.64-10.52,4.97-16.94,6.51c-4.38,1.05-10.76,2.59-18.07,2.59
			c-0.76,0-1.53-0.02-2.31-0.05c1.47,1.44,3.07,2.77,4.75,3.95c2.52,1.78,5.26,3.25,8.14,4.38l-0.26,0.65
			c-1.93-0.76-3.79-1.66-5.58-2.71c-1.12,5.75-1.14,11.43-0.07,16.89c3.77,19.21,19.83,29.76,24.94,31.24
			c2.32,0.67,5.91,1.29,6.61,1.41c3.22,0.54,6.39,0.88,9.68,1.02c0.47-1.51,0.97-3,1.51-4.48l0.66,0.24
			c-1.36,3.68-2.47,7.47-3.31,11.28c-0.25,1.15-0.49,2.32-0.7,3.48l-0.05,0.29l-0.29,0c-1.21,0-2.97,0.26-4.43,1.49
			c-2.48,2.07-2.91,5.91-1.88,8.27c2.05,4.71,10.56,5.06,15.64,5.26c4.68,0.19,9.36-0.39,13.91-1.74c1.49-4.73,2.63-9.61,3.37-14.5
			c0.52-3.44,0.97-9.71,0.97-9.77l0.02-0.3l0.3-0.02c3.08-0.23,5.93-0.57,8.96-1.06c9.3-1.5,16.02-2.59,23.37-6l1.17-0.55
			l-0.12,0.67c-0.29,1.61-0.5,3.26-0.62,4.89c-0.08,1.15-0.12,2.31-0.12,3.47l0,0.26l-0.24,0.08c-0.88,0.29-2.52,1.02-3.66,2.72
			c-1.34,2-1.58,4.78-0.57,6.62c1.99,3.59,8.64,3.13,11.84,2.91c4.61-0.32,9.09-1.84,13.31-4.51c0.23-5.07-0.05-10.17-0.82-15.18
			c-0.64-4.16-1.64-8.29-2.96-12.29l-0.07-0.21l0.51-0.49c4.92-4.8,8.41-10.38,10.38-16.58c1.18-3.7,4.5-16.8-2.05-30.05
			C175.05,91.19,160.09,82.35,142.92,82.05z"/>
	</g>
	<g>
		<path class="st0" d="M94.1,108.68c0.19-0.11,1.02-1-1.07-7.21c-1.66,1.12-3.45,2.22-5.36,3.28c0.87,0.89,1.83,1.68,2.87,2.35
			C91.86,107.95,93.52,109.02,94.1,108.68z"/>
	</g>
	<g>
		<path class="st1" d="M68.19,160.06c-1.11,1.64-2.52,4.03-3.42,6.67c-0.64,1.88-1.08,3.83-1.3,5.8l-0.04,0.33l-0.33-0.02
			c-1.22-0.06-3.55,0.09-5.54,1.74c-2.55,2.13-3.56,6.08-2.24,8.8c0.63,1.3,2.01,2.46,3.88,3.28c7.52,3.28,19.42-0.25,24.38-2
			c0.7-2.63,1.28-5.33,1.7-8.02c0.33-2.11,0.58-4.26,0.75-6.4c-1.41-0.27-3.21-0.65-4.59-1.05
			C78.83,168.46,73.42,165.39,68.19,160.06z"/>
	</g>
	<g>
		<path class="st1" d="M144.81,167.88c-3.67,0.85-7.58,1.48-12.09,2.21c-2.95,0.48-5.73,0.81-8.72,1.04
			c-0.07,0.89-0.27,3.6-0.55,6.2c3.47,0.59,7,0.74,10.51,0.42c3.83-0.34,7.58-1.23,11.17-2.63c0.1-1.54,0.1-3.09-0.02-4.62
			C145.04,169.63,144.94,168.75,144.81,167.88z"/>
	</g>
	<g>
		<path class="st3" d="M70.46,72.62c2.15,0.27,5.29,0.92,8.65,2.66c2.57,1.33,3.53,2.4,5.75,3.71c2.25,1.34,5.72,2.88,10.78,3.43
			c-5.77-1.62-8.51-4.26-9.95-6.41c-2.42-3.61-2.51-7.86-4.62-8.14c-1.08-0.15-1.66,0.88-3.65,2.19
			C74.91,71.71,72.37,72.35,70.46,72.62z"/>
	</g>
	<g>
		<path class="st3" d="M135.53,24.4c1.29,0.98,4.49,3.71,5.87,8.42c0.76,2.6,0.7,4.87,0.53,6.34c-3.46-2.61-6.92-5.22-10.38-7.83"/>
	</g>
	<g>
		<path class="st3" d="M91.38,11.35c-1.78,0.21-4.55,0.76-7.55,2.38c-3.83,2.07-6.11,4.83-7.23,6.42c3.8-0.38,7.6-0.77,11.4-1.15
			C89.13,16.44,90.26,13.89,91.38,11.35z"/>
	</g>
	<g>
		<path class="st3" d="M62.47,122.79c1.11-1.07,2.84-2.6,5.17-4.13c2.87-1.87,5-2.66,10.55-4.94c2.05-0.84,5.15-2.12,9-3.76
			c1.01,0.76,4.24,3.09,7.01,3.1c0.48,0,0.91-0.07,0.96-0.07c0.58-0.09,2.87-0.46,3.91-2.36c0.86-1.57,0.35-3.23,0.22-3.61
			c0.43,0.22,1.6,0.73,3.02,0.44c1.67-0.33,2.61-1.54,2.95-1.99c1.38-1.83,0.71-3.2,1.55-5.09c0.52-1.16,1.69-2.7,4.72-3.91
			c-0.01,0-9.47-2.16-9.47-2.16l0,0l0,0c0,0-2.25,2.3-2.26,2.31c1.18,2.11,2.36,4.23,3.54,6.34c-0.34,0.59-0.69,1.18-1.03,1.77
			c-2.51-0.76-5.02-1.52-7.52-2.29c0.2,2.78,0.39,5.56,0.59,8.33c-2.88-1.66-5.77-3.33-8.65-4.99c-4.21,1.8-9.19,3.58-14.87,5.01
			c-8.44,2.12-16.02,2.85-22.14,2.98c1.26,1.36,2.83,2.85,4.74,4.31C57.36,120.32,60.18,121.8,62.47,122.79z"/>
	</g>
	<g>
		<path class="st3" d="M13.44,93.34c0.65-1.84,1.86-4.26,4.24-5.8c4.17-2.68,8.24-0.26,13.89-2.29c2.04-0.73,4.75-2.2,7.49-5.51
			c-2.56,1.08-7.94,2.95-14.79,2.19c-8.86-0.97-14.66-5.71-16.67-7.53c-0.13,2.53-0.01,6.63,1.66,11.27
			C10.48,89.06,12.12,91.61,13.44,93.34z"/>
	</g>
	<g>
		<path class="st3" d="M100.13,165.69c-3.07,0.33-6.5,0.52-10.22,0.45c-6.4-0.12-12.02-0.97-16.63-2.01c-0.23,1.11-1,5.48,1.55,9.87
			c3.27,5.61,9.28,6.63,10.09,6.75c0.14-1.16,0.35-2.41,0.65-3.72c0.59-2.63,1.41-4.91,2.24-6.81c4.18,2.86,8.92,2.56,11.04,0.13
			C100.21,168.79,100.21,166.68,100.13,165.69z"/>
	</g>
	<g>
		<path class="st3" d="M124.68,177c1.75-0.59,3.56-1.17,5.44-1.71c5.3-1.54,10.35-2.64,15.06-3.42c-0.03-1.47-0.06-2.94-0.09-4.41
			c-7.15,1-14.3,2-21.45,2.99C123.99,172.64,124.34,174.82,124.68,177z"/>
	</g>
	<g>
		<path class="st3" d="M97.71,27.25c-0.04,0.4,3.96,0.34,8.65,3.21c1.81,1.11,3.18,2.32,4.13,3.28c1.43-1.26,3.06-3.04,2.63-4.48
			C112.01,25.51,97.78,26.49,97.71,27.25z"/>
	</g>
	<g>
		<path class="st4" d="M7.74,49.64c0.48,3.59,1.61,10.38,4.27,15.8c0.15,0.31,1.03,1.67,2.36,3.35c1.48,1.86,4.27,5.33,8.77,7.97
			c5,2.93,9.94,3.56,12.94,3.67c-2.93,0.83-8.18,1.88-14.43,0.62c-2.93-0.59-12.63-2.54-17.35-10.97c-0.92-1.64-3.78-6.75-2-12.74
			C3.54,53.13,6.44,50.63,7.74,49.64z"/>
	</g>
	<g>
		<path class="st5" d="M127.8,38.05c-0.46,0.58-1.01,1.48-1.03,2.59c-0.04,1.83,1.37,3.01,2.91,5.04c0,0,0.12,0.15,3.08,5.38
			c2.31,4.08,3.71,18.97,4.53,31.94c0.15,2.38,2.19,4.18,4.57,4.04c1.43-0.08,2.9-0.14,4.41-0.16c7.92-0.1,14.93,0.82,20.77,2.05
			c-2.76-1.73-6.6-3.76-11.45-5.3c-4.65-1.47-8.79-2.03-11.97-2.22c-0.51-2.58-1.32-6.74-2.31-11.88
			c-2.17-11.32-2.42-13.07-3.33-15.73C136.61,49.85,133.89,44.15,127.8,38.05z"/>
	</g>
	<g>
		<path class="st5" d="M181.45,87.36c0.32,0.42,2.34-1.34,6.7-2.12c0.49-0.09,0.96-0.15,1.4-0.2c1.47-0.16,2.69,1.12,2.46,2.58
			c-0.19,1.19-0.41,2.41-0.68,3.66c-1.24,5.87-3.05,10.93-4.92,15.13c6.22-7.78,9.21-14.24,10.72-18.27
			c1.19-3.17,2.43-7.42,0.6-9.43c-1.12-1.22-2.59-1.35-2.59-1.35c-1.31-0.11-2.35,0.59-2.86,0.94
			C190.5,79.54,180.76,86.47,181.45,87.36z"/>
	</g>
	<g>
		<path class="st5" d="M128.49,12.04c1.47,0.46,3.62,1.31,5.86,2.89c1.5,1.07,3.77,2.97,7.44,9.04c1.76,2.9,3.98,6.99,6.04,12.19
			c0.24-2.65,0.54-9.82-3.75-17.2c-3.24-5.57-7.58-8.66-9.88-10.07C132.3,9.94,130.4,10.99,128.49,12.04z"/>
	</g>
	<g>
		<path class="st6" d="M33.41,64.74c1.06-1.04,2.88-1,4.1-0.53c2.33,0.9,2.84,3.5,2.95,4.21c0.26,1.81-0.24,4.6-2,5.16
			c-1.82,0.58-3.75-1.62-4-1.89C32.84,69.85,31.73,66.39,33.41,64.74z"/>
	</g>
	<g>
		<path class="st6" d="M28.09,61.37c0.33-1.02,2.5-1.51,3.26-0.63c0.72,0.83,0.1,2.79-0.95,3.05C29.29,64.08,27.76,62.4,28.09,61.37
			z"/>
	</g>
	<g>
		<path d="M31.75,48.9c2.33,0.26,4.62,0.74,6.86,1.48c1.13,0.38,2.22,0.83,3.29,1.35c1.07,0.52,2.11,1.13,3.1,1.81
			c1.98,1.36,3.67,3.02,5.22,4.61c1.56,1.6,3.05,3.13,4.68,4.48c1.62,1.36,3.36,2.55,5.2,3.61c0.47,0.25,0.93,0.53,1.4,0.75
			l0.71,0.36l0.72,0.33c0.97,0.44,1.96,0.82,2.97,1.18c2.02,0.7,4.09,1.3,6.17,1.84l0.78,0.2l0.78,0.19
			c0.52,0.13,1.04,0.26,1.57,0.38c0.52,0.12,1.05,0.24,1.55,0.45c0.25,0.1,0.51,0.21,0.76,0.36c0.25,0.14,0.5,0.29,0.74,0.5
			l0.05,0.04c0.52,0.45,0.57,1.23,0.12,1.75c-0.12,0.14-0.28,0.25-0.43,0.32c-0.61,0.27-1.21,0.34-1.79,0.37
			c-0.29,0.01-0.58-0.01-0.87-0.03c-0.29-0.03-0.57-0.08-0.85-0.12c-1.13-0.19-2.25-0.42-3.36-0.69c-2.22-0.54-4.39-1.28-6.52-2.14
			c-1.06-0.44-2.12-0.89-3.16-1.4l-0.78-0.37l-0.77-0.4c-0.52-0.26-1.02-0.55-1.52-0.83c-2-1.15-3.94-2.47-5.71-3.97
			c-1.78-1.49-3.39-3.14-4.92-4.72c-1.54-1.58-3.03-3.04-4.72-4.2c-1.67-1.16-3.53-2.05-5.5-2.71c-1.97-0.65-4.05-1.08-6.13-1.3
			l-0.01,0c-0.96-0.1-1.66-0.96-1.56-1.93C29.91,49.49,30.78,48.79,31.75,48.9L31.75,48.9z"/>
	</g>
	<g>
		<path d="M52.01,115.6c-6.54,0-13.83-1.2-21.13-4.99c-14.5-7.53-25.19-23.09-25.4-37c-0.01-0.97,0.76-1.76,1.72-1.78
			c0.96-0.01,1.76,0.76,1.78,1.72c0.1,6.23,2.58,13.11,6.99,19.36c4.31,6.11,10.18,11.29,16.52,14.59
			c14.46,7.5,29.19,3.96,37.1,2.06c14.73-3.54,25.29-11.35,31.55-17.27c0.7-0.66,1.81-0.63,2.48,0.07c0.66,0.7,0.63,1.81-0.07,2.48
			c-6.57,6.22-17.66,14.41-33.13,18.13C65.96,114.04,59.47,115.6,52.01,115.6z"/>
	</g>
	<g>
		<path d="M71.15,39.3c-0.41,0-0.83-0.14-1.16-0.44c-0.72-0.64-0.79-1.75-0.15-2.47c4.05-4.58,9.03-8.02,14.4-9.96
			c10.87-3.92,21.35-1.17,24.79-0.26c0.85,0.22,2.62,0.69,4.96,1.54c0.91,0.33,1.38,1.33,1.05,2.24c-0.33,0.91-1.33,1.38-2.24,1.05
			c-2.19-0.79-3.86-1.23-4.66-1.44c-3.18-0.84-12.86-3.38-22.71,0.17c-4.82,1.74-9.3,4.85-12.96,8.99
			C72.12,39.1,71.64,39.3,71.15,39.3z"/>
	</g>
	<g>
		<path d="M50.05,112.5c1.07,0.88,2.12,1.76,3.2,2.61c1.08,0.84,2.17,1.67,3.3,2.42c1.13,0.76,2.31,1.48,3.52,2.17
			c0.61,0.34,1.2,0.71,1.77,1.14c0.57,0.44,1.13,0.92,1.63,1.56l0.01,0.01c0.29,0.36,0.23,0.89-0.14,1.18
			c-0.12,0.1-0.26,0.15-0.4,0.17c-0.84,0.12-1.61,0.03-2.36-0.12c-0.75-0.15-1.45-0.4-2.14-0.71c-1.37-0.6-2.72-1.28-4.02-2.07
			c-1.31-0.8-2.54-1.69-3.7-2.68c-1.15-0.98-2.23-2.06-3.18-3.24c-0.61-0.76-0.49-1.87,0.27-2.47c0.66-0.53,1.59-0.51,2.22,0.02
			L50.05,112.5z"/>
	</g>
	<g>
		<path d="M98.18,173.08c-0.02,0-0.05,0-0.07,0c-3.48-0.14-6.82-0.48-10.21-1.06c-0.72-0.12-4.43-0.76-6.84-1.46
			c-3.01-0.87-8.61-4.18-13.77-9.41c-4.58-4.63-10.49-12.45-12.64-23.44c-1.16-5.89-1.1-12.02,0.16-18.2
			c0.19-0.95,1.12-1.56,2.07-1.36c0.95,0.19,1.56,1.12,1.36,2.07c-1.17,5.73-1.23,11.39-0.16,16.83
			c1.99,10.13,7.46,17.37,11.69,21.65c5.05,5.1,10.1,7.88,12.26,8.51c2.24,0.65,5.77,1.26,6.46,1.37c3.24,0.55,6.44,0.88,9.77,1.01
			c0.97,0.04,1.72,0.85,1.68,1.82C99.89,172.34,99.11,173.08,98.18,173.08z"/>
	</g>
	<g>
		<path d="M183.84,110.4c-0.52,0-1.03-0.23-1.37-0.66c-0.6-0.76-0.47-1.86,0.29-2.46c3.31-2.62,7.89-7.21,10.87-14.17
			c1.69-3.93,2.65-8.12,2.87-12.46c0.06-1.17-0.83-1.66-1.11-1.78c-0.28-0.12-1.25-0.45-2.09,0.4c-3,3.07-6.35,5.78-9.96,8.05
			c-3.69,2.32-7.68,4.21-11.85,5.6c-0.92,0.31-1.91-0.19-2.21-1.11c-0.31-0.92,0.19-1.91,1.11-2.21c3.9-1.3,7.63-3.06,11.09-5.24
			c3.37-2.12,6.51-4.66,9.32-7.53c1.57-1.61,3.93-2.07,5.99-1.16c2.06,0.9,3.31,2.92,3.2,5.16c-0.24,4.75-1.3,9.35-3.15,13.66
			c-3.27,7.63-8.29,12.65-11.92,15.53C184.6,110.27,184.22,110.4,183.84,110.4z"/>
	</g>
	<g>
		<path d="M66.72,190.1c-2.97,0-5.86-0.42-8.36-1.5c-2.99-1.3-4.33-3.05-4.93-4.29c-1.74-3.6-0.52-8.58,2.79-11.33
			c1.8-1.5,3.81-2.03,5.37-2.19c0.27-1.61,0.66-3.2,1.19-4.74c1.05-3.06,2.71-5.78,3.92-7.53c0.55-0.8,1.64-0.99,2.44-0.44
			c0.8,0.55,0.99,1.64,0.44,2.44c-0.89,1.28-2.52,3.85-3.49,6.67c-0.61,1.78-1.03,3.63-1.23,5.5c-0.1,0.92-0.9,1.6-1.82,1.56
			c-1.01-0.05-2.95,0.07-4.57,1.42c-2.09,1.74-2.93,4.93-1.88,7.12c0.28,0.58,1.06,1.68,3.18,2.6c3.19,1.39,7.65,1.61,13.27,0.64
			c2.96-0.51,6.19-1.35,9.38-2.43c0.61-2.36,1.1-4.77,1.48-7.17c0.34-2.17,0.6-4.39,0.76-6.59c0.07-0.96,0.91-1.69,1.87-1.62
			c0.96,0.07,1.69,0.91,1.62,1.87c-0.17,2.3-0.43,4.61-0.79,6.88c-0.45,2.82-1.05,5.66-1.8,8.42c-0.15,0.56-0.56,1-1.1,1.19
			C80.9,187.86,73.61,190.1,66.72,190.1z"/>
	</g>
	<g>
		<path d="M130.31,180.02c-2.52,0-5.04-0.22-7.52-0.67c-0.95-0.17-1.59-1.08-1.42-2.03c0.17-0.95,1.08-1.58,2.03-1.42
			c3.44,0.61,6.95,0.77,10.43,0.45c3.4-0.31,6.74-1.05,9.94-2.22c0.05-1.18,0.02-2.36-0.06-3.53c-0.07-0.95-0.19-1.91-0.34-2.86
			c-0.16-0.95,0.48-1.86,1.44-2.02c0.95-0.16,1.86,0.48,2.02,1.44c0.18,1.05,0.3,2.12,0.38,3.17c0.13,1.71,0.13,3.44,0,5.15
			c-0.05,0.67-0.48,1.25-1.1,1.5c-3.83,1.52-7.86,2.48-11.96,2.85C132.87,179.96,131.59,180.02,130.31,180.02z"/>
	</g>
	<g>
		<path d="M100.91,28.13c-0.07,0-0.15,0-0.22-0.01c-0.96-0.12-1.64-0.99-1.52-1.95c0.55-4.4,0.81-8.89,0.77-13.32
			c-0.02-2.36-0.13-4.76-0.32-7.12c-0.04-0.49-0.33-0.77-0.5-0.9C98.96,4.7,98.6,4.5,98.11,4.61c-4.8,1.02-9.42,2.71-13.75,5
			c-4.35,2.31-8.35,5.21-11.9,8.63c-0.03,0.03-0.09,0.09-0.05,0.2c0.04,0.12,0.13,0.13,0.17,0.13c3.57,0.31,7.14,0.2,10.61-0.35
			c1.46-0.23,2.92-0.54,4.35-0.92c0.93-0.25,1.89,0.31,2.14,1.24c0.25,0.93-0.31,1.89-1.24,2.14c-1.55,0.41-3.13,0.75-4.71,0.99
			c-3.76,0.59-7.62,0.72-11.47,0.38c-1.46-0.13-2.68-1.07-3.16-2.45c-0.49-1.38-0.14-2.87,0.92-3.89c3.78-3.65,8.05-6.75,12.69-9.21
			c4.61-2.45,9.55-4.24,14.66-5.33c1.34-0.29,2.74,0.02,3.84,0.84c1.1,0.82,1.79,2.06,1.9,3.43c0.2,2.45,0.31,4.92,0.33,7.37
			c0.04,4.59-0.23,9.23-0.8,13.78C102.54,27.48,101.78,28.13,100.91,28.13z"/>
	</g>
	<g>
		<path d="M92.94,11.48c0.01,0.44-0.06,0.83-0.15,1.2c-0.09,0.37-0.22,0.71-0.36,1.04c-0.15,0.33-0.32,0.64-0.48,0.96
			c-0.16,0.32-0.31,0.64-0.46,0.97c-0.61,1.29-1.14,2.62-1.62,3.96c-0.48,1.34-0.89,2.71-1.25,4.09c-0.36,1.38-0.65,2.78-0.92,4.19
			l0,0.01c-0.18,0.95-1.1,1.57-2.06,1.39c-0.87-0.17-1.46-0.95-1.42-1.8c0.07-1.57,0.3-3.14,0.63-4.69
			c0.33-1.55,0.79-3.06,1.34-4.55c0.55-1.48,1.22-2.92,1.97-4.31c0.19-0.35,0.39-0.69,0.58-1.03c0.2-0.34,0.4-0.68,0.63-1
			c0.23-0.32,0.5-0.62,0.8-0.89c0.3-0.27,0.65-0.52,1.07-0.7c0.62-0.27,1.34,0.01,1.61,0.63c0.07,0.15,0.1,0.31,0.1,0.47
			L92.94,11.48z"/>
	</g>
	<g>
		<path d="M136.21,24.46c0.04,0.75-0.1,1.43-0.3,2.07c-0.2,0.64-0.51,1.22-0.8,1.81c-0.6,1.17-1.24,2.31-1.93,3.43
			c-0.69,1.12-1.46,2.23-2.28,3.27c-0.83,1.04-1.72,2.04-2.69,2.94l0,0l-0.19-2.52c3.29,2.69,6.19,6,8.25,9.81
			c0.26,0.47,0.5,0.96,0.74,1.44c0.22,0.5,0.45,0.97,0.66,1.51c0.41,1.05,0.71,2.04,1.01,3.04c0.59,1.99,1.13,3.96,1.65,5.96
			c1.02,3.99,1.9,8.02,2.62,12.07c0.73,4.05,1.3,8.13,1.73,12.23l-1.71-1.57c8.58,0.14,17.17,2.42,24.58,6.87
			c3.7,2.22,7.1,4.96,10,8.18c2.91,3.21,5.32,6.88,7.06,10.86c1.74,3.98,2.83,8.24,3.22,12.55c0.4,4.31,0.16,8.66-0.67,12.89
			c-0.21,1.06-0.45,2.11-0.74,3.16c-0.29,1.05-0.63,2.08-1,3.1c-0.75,2.03-1.66,4.01-2.72,5.9c-1.07,1.89-2.28,3.69-3.61,5.39
			c-1.34,1.69-2.8,3.3-4.35,4.78l0.45-1.81c1.51,4.56,2.59,9.27,3.24,14.03c0.65,4.76,0.86,9.58,0.63,14.38
			c-0.03,0.58-0.35,1.09-0.8,1.39c-2.95,1.89-6.22,3.34-9.66,4.18c-0.86,0.21-1.73,0.38-2.61,0.51c-0.44,0.07-0.88,0.12-1.32,0.16
			c-0.44,0.05-0.89,0.08-1.3,0.11c-1.69,0.12-3.44,0.19-5.24,0.06c-0.9-0.07-1.81-0.19-2.74-0.41c-0.93-0.22-1.87-0.55-2.79-1.07
			c-0.91-0.52-1.8-1.29-2.41-2.27c-0.62-0.98-0.93-2.06-1.04-3.1c-0.11-1.05-0.02-2.08,0.22-3.07c0.24-0.99,0.64-1.95,1.21-2.82
			c0.57-0.88,1.3-1.65,2.12-2.26c0.83-0.62,1.74-1.08,2.71-1.4l-1.21,1.67c-0.01-2.93,0.24-5.86,0.77-8.74l2.47,1.9
			c-0.63,0.31-1.32,0.6-1.99,0.9c-0.68,0.28-1.35,0.57-2.03,0.82c-1.36,0.53-2.75,0.99-4.15,1.41c-2.8,0.83-5.63,1.44-8.45,1.97
			c-2.82,0.52-5.62,0.97-8.43,1.42c-2.84,0.45-5.71,0.78-8.58,0.99l1.62-1.62c-0.15,2.1-0.33,4.18-0.54,6.28
			c-0.11,1.05-0.23,2.1-0.38,3.17c-0.15,1.07-0.32,2.1-0.51,3.15c-0.75,4.17-1.77,8.3-3.06,12.34c-0.18,0.57-0.64,0.98-1.17,1.15
			c-3.86,1.16-7.88,1.8-11.92,1.9c-1.01,0.03-2.03,0.01-3.02-0.03c-0.97-0.04-1.96-0.08-2.95-0.15c-1.98-0.13-4-0.34-6.03-0.78
			c-1.02-0.23-2.04-0.52-3.05-0.92c-1.01-0.41-2.03-0.94-2.97-1.68c-0.93-0.74-1.78-1.74-2.29-2.91c-0.51-1.17-0.71-2.36-0.73-3.53
			c-0.01-1.17,0.18-2.34,0.57-3.45c0.4-1.11,1-2.19,1.84-3.09c0.84-0.91,1.91-1.62,3.04-2.06c1.13-0.44,2.31-0.63,3.47-0.63
			l-1.72,1.44c0.25-1.39,0.53-2.76,0.84-4.15c0.31-1.39,0.62-2.77,0.97-4.13c0.36-1.36,0.8-2.7,1.33-4c0.54-1.3,1.18-2.56,2.07-3.72
			c0.36-0.48,1.05-0.57,1.53-0.21c0.3,0.23,0.45,0.57,0.43,0.92l0,0.02c-0.07,1.43-0.34,2.78-0.66,4.11
			c-0.33,1.33-0.71,2.63-1.12,3.93c-0.41,1.29-0.83,2.58-1.14,3.89c-0.31,1.31-0.58,2.64-0.82,3.97l0,0
			c-0.15,0.85-0.89,1.44-1.72,1.44c-0.78,0-1.54,0.13-2.22,0.4c-0.68,0.26-1.26,0.65-1.74,1.17c-0.96,1.03-1.5,2.6-1.48,4.14
			c0,0.76,0.15,1.52,0.42,2.13c0.27,0.61,0.7,1.14,1.28,1.61c1.17,0.93,2.85,1.53,4.59,1.92c1.76,0.39,3.61,0.59,5.5,0.71
			c0.94,0.06,1.9,0.1,2.86,0.14c0.94,0.03,1.86,0.05,2.8,0.03c3.72-0.09,7.43-0.68,11-1.75l-1.17,1.15c1.24-3.9,2.22-7.88,2.95-11.9
			c0.18-1,0.35-2.02,0.49-3.02c0.14-0.99,0.25-2.02,0.36-3.04c0.21-2.04,0.38-4.12,0.53-6.17l0-0.01c0.06-0.88,0.76-1.56,1.62-1.62
			c2.78-0.21,5.54-0.52,8.3-0.95c2.78-0.45,5.58-0.9,8.33-1.41c2.75-0.52,5.46-1.1,8.09-1.89c1.32-0.39,2.62-0.82,3.89-1.32
			c0.64-0.24,1.27-0.51,1.9-0.77c0.63-0.28,1.24-0.55,1.88-0.85c0.87-0.42,1.91-0.05,2.33,0.81c0.17,0.35,0.21,0.72,0.15,1.07
			l0,0.02c-0.49,2.67-0.72,5.39-0.71,8.1c0,0.78-0.5,1.44-1.2,1.67l-0.01,0c-0.61,0.2-1.2,0.5-1.71,0.88
			c-0.51,0.38-0.94,0.84-1.28,1.36c-0.68,1.04-1.01,2.41-0.88,3.63c0.06,0.61,0.24,1.17,0.51,1.6c0.27,0.43,0.67,0.8,1.2,1.11
			c0.53,0.3,1.17,0.54,1.86,0.7c0.69,0.17,1.43,0.27,2.19,0.32c1.53,0.11,3.11,0.05,4.74-0.06c0.42-0.03,0.8-0.05,1.19-0.1
			c0.39-0.04,0.77-0.09,1.16-0.14c0.77-0.11,1.54-0.26,2.29-0.45c3.03-0.74,5.94-2.02,8.6-3.73l-0.8,1.39
			c0.22-4.59,0.02-9.19-0.6-13.74c-0.62-4.55-1.66-9.04-3.1-13.4l0-0.01c-0.22-0.66-0.02-1.35,0.45-1.8
			c1.46-1.39,2.79-2.86,4.03-4.42c1.23-1.56,2.33-3.22,3.31-4.94c0.97-1.73,1.8-3.53,2.48-5.39c0.34-0.93,0.66-1.87,0.91-2.82
			c0.26-0.95,0.49-1.92,0.68-2.9c0.76-3.91,0.99-7.94,0.62-11.89c-0.36-3.96-1.35-7.84-2.94-11.47c-1.58-3.63-3.78-6.98-6.45-9.92
			c-2.66-2.94-5.79-5.47-9.21-7.52c-6.84-4.11-14.84-6.24-22.84-6.37c-0.9-0.01-1.62-0.7-1.71-1.57c-0.42-4.01-0.98-8.01-1.69-11.97
			c-0.71-3.97-1.57-7.91-2.57-11.82c-0.51-1.95-1.04-3.9-1.61-5.82c-0.29-0.95-0.59-1.92-0.92-2.76c-0.16-0.41-0.37-0.85-0.57-1.29
			c-0.21-0.43-0.42-0.86-0.65-1.28c-0.91-1.68-2.01-3.26-3.25-4.73c-1.24-1.47-2.64-2.81-4.14-4.05c-0.75-0.61-0.85-1.71-0.24-2.46
			l0.05-0.06l0,0c0.73-0.99,1.46-1.96,2.16-2.96c0.71-1,1.38-1.99,2.05-3.03c0.66-1.04,1.31-2.09,1.95-3.16
			c0.61-1.08,1.23-2.12,2.31-2.96l0.05-0.03c0.57-0.44,1.39-0.34,1.84,0.23C136.11,23.95,136.19,24.2,136.21,24.46z"/>
	</g>
	<g>
		<path d="M109.86,32.85c-0.04-1.16,0.47-1.98,1-2.76c0.52-0.8,1.03-1.59,1.57-2.37c1.07-1.56,2.19-3.09,3.34-4.59
			c1.16-1.5,2.34-2.98,3.56-4.45c0.61-0.73,1.23-1.46,1.87-2.18c0.32-0.36,0.65-0.72,0.97-1.08l0.98-1.05
			c1.32-1.38,2.68-2.73,4.07-4.03c0.7-0.65,1.41-1.29,2.12-1.92l0.13-0.12l0.18-0.15c0.13-0.1,0.25-0.21,0.39-0.3l0.41-0.26
			c0.14-0.08,0.29-0.15,0.43-0.23c0.59-0.28,1.22-0.47,1.87-0.57c1.29-0.16,2.64,0.05,3.79,0.7c0.57,0.32,1.11,0.72,1.55,1.2
			l0.08,0.09l0.06,0.07l0.12,0.14l0.24,0.27l0.48,0.55c1.26,1.49,2.43,3.06,3.49,4.7c4.25,6.56,6.69,14.28,7.01,22.08
			c0.02,0.49,0.04,0.98,0.04,1.46l0,0.37c-0.01,0.21-0.01,0.44-0.06,0.65c-0.07,0.44-0.23,0.87-0.46,1.25
			c-0.22,0.39-0.52,0.72-0.87,1c-0.34,0.28-0.74,0.49-1.16,0.63c-0.42,0.14-0.87,0.21-1.32,0.18c-0.22,0-0.44-0.05-0.66-0.09
			c-0.11-0.03-0.21-0.06-0.32-0.09l-0.15-0.05l-0.09-0.03c-1.85-0.68-3.65-1.53-5.36-2.52c-3.42-1.99-6.48-4.6-9-7.66l0,0
			c-0.61-0.75-0.51-1.85,0.24-2.46c0.75-0.61,1.85-0.51,2.46,0.24c2.25,2.74,4.99,5.08,8.05,6.86c1.53,0.89,3.14,1.65,4.81,2.26
			l0.08,0.03c0.02,0.01,0.01,0,0.02,0c0.01,0,0.01,0,0.02,0.01c0.01-0.01,0.02,0.01,0.04,0c0.02,0,0.04,0,0.07-0.01
			c0.02-0.01,0.05-0.02,0.07-0.04c0.02-0.02,0.04-0.03,0.05-0.06c0.01-0.02,0.02-0.04,0.02-0.06c0.01-0.01,0-0.03,0.01-0.05l0-0.34
			c0-0.45-0.02-0.9-0.04-1.35c-0.3-7.19-2.54-14.29-6.46-20.33c-0.97-1.51-2.05-2.96-3.21-4.33l-0.44-0.51l-0.22-0.25l-0.11-0.13
			l-0.06-0.06c-0.02-0.02-0.03-0.03-0.04-0.04c-0.19-0.21-0.42-0.38-0.67-0.52c-0.49-0.28-1.08-0.37-1.65-0.3
			c-0.28,0.04-0.56,0.13-0.81,0.25c-0.06,0.03-0.13,0.06-0.19,0.1c-0.06,0.04-0.12,0.08-0.18,0.12c-0.06,0.04-0.11,0.09-0.17,0.13
			c-0.03,0.03-0.05,0.04-0.09,0.07l-0.13,0.11c-0.69,0.61-1.37,1.23-2.05,1.85c-1.35,1.26-2.65,2.55-3.92,3.89l-0.94,1.01
			c-0.3,0.34-0.61,0.67-0.91,1.02c-0.6,0.69-1.19,1.4-1.77,2.11c-1.17,1.43-2.29,2.91-3.41,4.39l-3.35,4.46l-1.67,2.23
			c-0.54,0.76-1.07,1.5-2.13,1.91l-0.03,0.01c-0.62,0.24-1.31-0.07-1.55-0.68C109.89,33.12,109.87,32.98,109.86,32.85z"/>
	</g>
	<g>
		<path class="st7" d="M138.78,28.92"/>
	</g>
	<g>
		<path d="M100.38,83.95c-0.56,0-1.12-0.02-1.68-0.07c-5.65-0.45-11.03-3.27-14.76-7.74c-3.73-4.47-5.48-10.04-4.92-15.67
			c0.53-5.31,3.09-10.22,7.21-13.83c4.05-3.55,9.14-5.47,14.34-5.38l0,0c6.11,0.09,11.99,2.97,16.11,7.91
			c4.08,4.89,5.85,11.1,4.86,17.05c-0.86,5.13-3.68,9.8-7.95,13.13C109.75,82.34,105.11,83.95,100.38,83.95z M100.28,44.76
			c-8.95,0-16.9,7.15-17.78,16.06c-0.47,4.69,1,9.34,4.13,13.08c3.13,3.75,7.63,6.11,12.35,6.49c9.07,0.73,17.64-5.89,19.11-14.75
			c0.82-4.94-0.67-10.12-4.1-14.23c-3.47-4.16-8.38-6.58-13.48-6.66C100.44,44.76,100.36,44.76,100.28,44.76z"/>
	</g>
	<g>
		<path d="M50.06,62.23c-0.72,0-1.39-0.44-1.65-1.16c-2.35-6.53-0.88-14.12,3.74-19.33c3.26-3.68,7.91-5.93,13.09-6.33
			c4.86-0.38,9.78,0.92,13.5,3.57c5.08,3.63,6.87,8.87,7.49,11.68c0.21,0.94-0.39,1.88-1.34,2.09c-0.94,0.21-1.88-0.39-2.09-1.34
			c-0.41-1.86-1.82-6.52-6.1-9.58c-3.06-2.18-7.14-3.25-11.2-2.93c-4.28,0.34-8.09,2.17-10.75,5.16
			c-3.73,4.21-4.96,10.57-3.07,15.83c0.33,0.91-0.15,1.91-1.06,2.24C50.46,62.2,50.26,62.23,50.06,62.23z"/>
	</g>
	<g>
		<path d="M70.84,74.11c-0.87,0-1.63-0.65-1.74-1.54c-0.12-0.96,0.56-1.83,1.52-1.95c2.45-0.3,4.63-1.12,6.47-2.44
			c0.99-0.71,1.89-1.57,2.67-2.56c0.6-0.76,1.7-0.89,2.46-0.29c0.76,0.6,0.89,1.7,0.29,2.46c-0.98,1.25-2.12,2.34-3.38,3.24
			c-2.32,1.66-5.04,2.7-8.08,3.07C70.98,74.11,70.91,74.11,70.84,74.11z"/>
	</g>
	<g>
		<path d="M102.17,75.5c-0.41,0-0.72-0.02-0.89-0.04c-2.69-0.25-5.4-1.52-7.44-3.49c-2.29-2.2-3.49-5.05-3.38-8.04
			c0.11-2.95,1.45-5.69,3.78-7.74c2.42-2.12,5.64-3.22,8.6-2.93c5.22,0.51,8.02,5.15,8.32,5.67c2.16,3.77,2.46,9.57-1.13,13.38
			C107.39,75.12,103.89,75.5,102.17,75.5z M101.89,54.16c-2.46,0-5.04,0.99-7.04,2.74c-2.14,1.87-3.37,4.38-3.47,7.07
			c-0.21,5.74,4.99,10.1,9.98,10.56c0.81,0.08,5.01,0.3,7.99-2.85c3.28-3.47,2.99-8.8,1-12.27c-0.28-0.48-2.85-4.75-7.6-5.21l0,0
			C102.47,54.17,102.18,54.16,101.89,54.16z"/>
	</g>
	<g>
		<path d="M67.04,64.11c-0.34,0-0.69-0.02-1.03-0.06c-2.52-0.31-4.78-1.73-6.37-4.01c-1.74-2.5-2.4-5.62-1.76-8.35
			c0.69-2.94,2.92-5.46,5.81-6.59c0.19-0.07,4.68-1.77,8.74,0.93l0,0c3.65,2.43,5.22,7.24,3.74,11.44
			C74.79,61.41,70.98,64.11,67.04,64.11z M67.23,45.44c-1.79,0-3.11,0.5-3.2,0.54c-2.61,1.02-4.61,3.29-5.24,5.93
			c-0.57,2.43,0.05,5.34,1.62,7.6c1.43,2.06,3.46,3.34,5.72,3.61c3.87,0.47,7.81-2.09,9.17-5.95c1.34-3.8-0.08-8.16-3.38-10.36l0,0
			C70.31,45.75,68.63,45.44,67.23,45.44z"/>
	</g>
	<g>
		<path d="M29.84,83.84c-2.67,0-5.54-0.35-8.49-1.06C13.15,80.79,3.43,75.5,0.73,66.58c-1.88-6.2,0.37-11.87,1.42-14.02
			c1.94-3.96,5.41-7.36,9.52-9.34c4.21-2.03,8.74-2.39,12.43-0.98c3.15,1.2,6.5,3.95,8.74,7.16c0.79,1.13,1.12,1.87,1.39,2.47
			c0.26,0.57,0.43,0.95,1,1.65v0c1.35,1.65,2.59,2.15,4.02,2.73c1.43,0.58,3.05,1.23,4.69,2.99c3.5,3.75,3.64,8.82,3.63,9.8
			c0,0.24-0.09,5.88-4.32,10.23C40.34,82.26,35.53,83.84,29.84,83.84z M19.3,44.89c-1.97,0-4.07,0.5-6.11,1.48
			c-3.41,1.65-6.29,4.46-7.9,7.73c-0.68,1.39-2.78,6.31-1.22,11.46c0.97,3.18,3.26,6.17,6.64,8.65c3.18,2.33,7.14,4.11,11.45,5.15
			c7.92,1.92,15.21,0.92,18.56-2.55c3.26-3.36,3.33-7.78,3.33-7.82c0-0.46-0.04-4.54-2.69-7.38c-1.11-1.19-2.19-1.62-3.44-2.13
			c-1.64-0.66-3.5-1.41-5.42-3.76l0,0c-0.86-1.05-1.18-1.75-1.48-2.42c-0.24-0.54-0.47-1.04-1.08-1.91
			c-1.83-2.63-4.62-4.94-7.11-5.89C21.76,45.1,20.56,44.89,19.3,44.89z"/>
	</g>
	<g>
		<path d="M10.27,59.54c-1.38,0.49-1.73,4.29-0.57,7.07c0.81,1.94,2.68,4.12,3.93,3.72c1.34-0.43,1.75-3.79,0.95-6.31
			C13.8,61.52,11.56,59.09,10.27,59.54z"/>
		<path d="M13.32,70.84c-1.53,0-3.28-2.23-4.05-4.06C8.4,64.7,8.29,61.9,9.01,60.28c0.27-0.62,0.65-1.01,1.11-1.18l0,0
			c0.43-0.15,0.92-0.09,1.46,0.17c1.35,0.67,2.84,2.65,3.46,4.61c1.04,3.26,0.16,6.44-1.26,6.89
			C13.63,70.82,13.48,70.84,13.32,70.84z M10.43,59.98L10.43,59.98c-0.2,0.07-0.4,0.31-0.57,0.67c-0.54,1.22-0.59,3.72,0.27,5.77
			c0.83,1.98,2.53,3.73,3.36,3.46c0.94-0.3,1.44-3.24,0.65-5.72c-0.54-1.71-1.85-3.49-2.98-4.05C10.95,60.01,10.66,59.9,10.43,59.98
			z"/>
	</g>
	<g>
		<path d="M25.8,75.99c-1.54,0-3.25-1.56-4.02-2.94c-0.84-1.5-1.08-3.63-0.6-5.17c0.25-0.79,0.67-1.34,1.21-1.61l0,0
			c0.55-0.27,1.23-0.24,1.98,0.08c1.49,0.64,2.92,2.29,3.47,4c0.53,1.68,0.56,4.56-1.1,5.41C26.44,75.92,26.12,75.99,25.8,75.99z
			 M22.8,67.11c-0.3,0.15-0.56,0.52-0.72,1.05c-0.41,1.3-0.19,3.17,0.52,4.44c0.84,1.5,2.68,2.88,3.72,2.34
			c0.99-0.51,1.15-2.69,0.64-4.3c-0.52-1.65-1.88-2.97-2.95-3.43C23.52,67,23.09,66.96,22.8,67.11L22.8,67.11z"/>
	</g>
	<g>
		<path d="M102.19,89.97c0.51,0.45,0.66,0.85,0.83,1.26c0.18,0.4,0.41,0.75,0.67,1.05c0.28,0.29,0.59,0.56,0.95,0.78
			c0.37,0.21,0.77,0.41,1.21,0.54c0.44,0.13,0.9,0.24,1.39,0.28c0.24,0.04,0.49,0.03,0.74,0.05c0.25-0.01,0.5,0,0.75-0.02
			c0.25-0.02,0.51-0.04,0.76-0.09c0.13-0.02,0.25-0.03,0.38-0.06l0.38-0.08c0.51-0.11,0.98-0.32,1.62-0.18l0.23,0.05
			c0.86,0.18,1.41,1.03,1.23,1.9c-0.06,0.26-0.18,0.5-0.34,0.7c-0.24,0.29-0.54,0.5-0.85,0.65c-0.16,0.07-0.32,0.13-0.49,0.19
			c-0.16,0.06-0.33,0.11-0.5,0.15l-0.51,0.14c-0.17,0.04-0.34,0.07-0.52,0.11c-0.34,0.08-0.7,0.12-1.05,0.17
			c-0.18,0.03-0.35,0.04-0.53,0.05c-0.18,0.01-0.36,0.03-0.54,0.03c-0.36,0-0.72,0.01-1.09-0.03c-0.73-0.04-1.47-0.19-2.19-0.39
			c-0.73-0.22-1.44-0.55-2.11-0.97c-0.67-0.42-1.27-0.98-1.79-1.61c-0.51-0.64-0.89-1.36-1.16-2.09c-0.28-0.72-0.41-1.51-0.05-2.27
			c0.36-0.76,1.26-1.08,2.01-0.73c0.13,0.06,0.25,0.14,0.35,0.23L102.19,89.97z"/>
	</g>
	<g>
		<path d="M94.36,111.9c-1.61,0-3.52-1.04-5.38-2.15c-1.53-0.92-2.92-2.06-4.14-3.39c-0.65-0.71-0.6-1.82,0.11-2.47
			c0.71-0.65,1.82-0.6,2.47,0.11c0.99,1.08,2.12,2.01,3.35,2.75c1.61,0.97,2.52,1.38,3.04,1.55c-0.08-1.03-0.66-3.27-2.2-6.65
			c-0.4-0.88-0.01-1.92,0.87-2.32c0.88-0.4,1.92-0.01,2.32,0.87c3.67,8.06,2.62,10.2,1.3,11.17
			C95.58,111.74,94.99,111.9,94.36,111.9z"/>
	</g>
	<g>
		<path d="M101.6,106.52c-1.42,0-3.04-0.69-4.44-1.39c-1.75-0.87-3.26-2.13-4.49-3.73c-0.59-0.77-0.45-1.87,0.32-2.46
			c0.77-0.59,1.87-0.45,2.46,0.32c0.91,1.18,2.01,2.1,3.28,2.73c1.19,0.59,1.93,0.84,2.37,0.95c-0.14-0.81-0.7-2.62-2.77-6.27
			c-0.48-0.84-0.18-1.91,0.66-2.39c0.84-0.47,1.91-0.18,2.39,0.66c3.44,6.09,4.1,9.23,2.31,10.84
			C103.1,106.31,102.38,106.52,101.6,106.52z"/>
	</g>
</g>
</svg>
